<!DOCTYPE html PUBLIC "-//W3C//DTD XHTML 1.0 Transitional//EN" "https://www.w3.org/TR/xhtml1/DTD/xhtml1-transitional.dtd">
<html xmlns="http://www.w3.org/1999/xhtml">
<head>
<meta http-equiv="Content-Type" content="text/xhtml;charset=UTF-8"/>
<meta http-equiv="X-UA-Compatible" content="IE=9"/>
<meta name="generator" content="Doxygen 1.9.1"/>
<meta name="viewport" content="width=device-width, initial-scale=1"/>
<title>FFmpegfs Fuse Multi Media Filesystem: src/cuesheetparser.cc File Reference</title>
<link href="tabs.css" rel="stylesheet" type="text/css"/>
<script type="text/javascript" src="jquery.js"></script>
<script type="text/javascript" src="dynsections.js"></script>
<link href="search/search.css" rel="stylesheet" type="text/css"/>
<script type="text/javascript" src="search/searchdata.js"></script>
<script type="text/javascript" src="search/search.js"></script>
<link href="doxygen.css" rel="stylesheet" type="text/css" />
</head>
<body>
<div id="top"><!-- do not remove this div, it is closed by doxygen! -->
<div id="titlearea">
<table cellspacing="0" cellpadding="0">
 <tbody>
 <tr style="height: 56px;">
  <td id="projectalign" style="padding-left: 0.5em;">
   <div id="projectname">FFmpegfs Fuse Multi Media Filesystem
   &#160;<span id="projectnumber">2.3</span>
   </div>
  </td>
 </tr>
 </tbody>
</table>
</div>
<!-- end header part -->
<!-- Generated by Doxygen 1.9.1 -->
<script type="text/javascript">
/* @license magnet:?xt=urn:btih:cf05388f2679ee054f2beb29a391d25f4e673ac3&amp;dn=gpl-2.0.txt GPL-v2 */
var searchBox = new SearchBox("searchBox", "search",false,'Search','.html');
/* @license-end */
</script>
<script type="text/javascript" src="menudata.js"></script>
<script type="text/javascript" src="menu.js"></script>
<script type="text/javascript">
/* @license magnet:?xt=urn:btih:cf05388f2679ee054f2beb29a391d25f4e673ac3&amp;dn=gpl-2.0.txt GPL-v2 */
$(function() {
  initMenu('',true,false,'search.php','Search');
  $(document).ready(function() { init_search(); });
});
/* @license-end */</script>
<div id="main-nav"></div>
<!-- window showing the filter options -->
<div id="MSearchSelectWindow"
     onmouseover="return searchBox.OnSearchSelectShow()"
     onmouseout="return searchBox.OnSearchSelectHide()"
     onkeydown="return searchBox.OnSearchSelectKey(event)">
</div>

<!-- iframe showing the search results (closed by default) -->
<div id="MSearchResultsWindow">
<iframe src="javascript:void(0)" frameborder="0" 
        name="MSearchResults" id="MSearchResults">
</iframe>
</div>

<div id="nav-path" class="navpath">
  <ul>
<li class="navelem"><a class="el" href="dir_68267d1309a1af8e8297ef4c3efbcdba.html">src</a></li>  </ul>
</div>
</div><!-- top -->
<div class="header">
  <div class="summary">
<a href="#define-members">Macros</a> &#124;
<a href="#func-members">Functions</a>  </div>
  <div class="headertitle">
<div class="title">cuesheetparser.cc File Reference</div>  </div>
</div><!--header-->
<div class="contents">

<p>Cue sheet parser implementation.  
<a href="#details">More...</a></p>
<div class="textblock"><code>#include &quot;<a class="el" href="ffmpegfs_8h_source.html">ffmpegfs.h</a>&quot;</code><br />
<code>#include &quot;<a class="el" href="cuesheetparser_8h_source.html">cuesheetparser.h</a>&quot;</code><br />
<code>#include &quot;<a class="el" href="transcode_8h_source.html">transcode.h</a>&quot;</code><br />
<code>#include &quot;<a class="el" href="logging_8h_source.html">logging.h</a>&quot;</code><br />
<code>#include &lt;libcue.h&gt;</code><br />
</div><div class="textblock"><div class="dynheader">
Include dependency graph for cuesheetparser.cc:</div>
<div class="dyncontent">
<div class="center"><img src="cuesheetparser_8cc__incl.png" border="0" usemap="#asrc_2cuesheetparser_8cc" alt=""/></div>
<map name="asrc_2cuesheetparser_8cc" id="asrc_2cuesheetparser_8cc">
<area shape="rect" title="Cue sheet parser implementation." alt="" coords="631,5,793,32"/>
<area shape="rect" href="ffmpegfs_8h.html" title="Main include for FFmpegfs project." alt="" coords="442,155,534,181"/>
<area shape="rect" href="cuesheetparser_8h.html" title="Clue sheet parser." alt="" coords="559,155,692,181"/>
<area shape="rect" href="transcode_8h.html" title="File transcoder interface (for use with by FUSE)" alt="" coords="663,80,761,107"/>
<area shape="rect" href="logging_8h.html" title="Provide various log facilities to stderr, disk or syslog." alt="" coords="995,229,1077,256"/>
<area shape="rect" title=" " alt="" coords="837,80,910,107"/>
<area shape="rect" title=" " alt="" coords="525,229,587,256"/>
<area shape="rect" title=" " alt="" coords="287,229,361,256"/>
<area shape="rect" href="ffmpeg__utils_8h.html" title="Various FFmpegfs utility functions." alt="" coords="385,229,500,256"/>
<area shape="rect" href="fileio_8h.html" title="FileIO class." alt="" coords="676,229,743,256"/>
<area shape="rect" href="ffmpeg__compat_8h.html" title="FFmpeg API compatibility." alt="" coords="336,304,472,331"/>
<area shape="rect" title=" " alt="" coords="584,304,643,331"/>
<area shape="rect" title=" " alt="" coords="497,304,559,331"/>
<area shape="rect" title=" " alt="" coords="776,304,835,331"/>
<area shape="rect" title=" " alt="" coords="5,304,112,331"/>
<area shape="rect" title=" " alt="" coords="137,304,311,331"/>
<area shape="rect" title=" " alt="" coords="667,304,752,331"/>
<area shape="rect" title=" " alt="" coords="1011,304,1061,331"/>
<area shape="rect" title=" " alt="" coords="859,304,987,331"/>
<area shape="rect" title=" " alt="" coords="1185,304,1258,331"/>
<area shape="rect" title=" " alt="" coords="1085,304,1160,331"/>
</map>
</div>
</div>
<p><a href="cuesheetparser_8cc_source.html">Go to the source code of this file.</a></p>
<table class="memberdecls">
<tr class="heading"><td colspan="2"><h2 class="groupheader"><a name="define-members"></a>
Macros</h2></td></tr>
<tr class="memitem:ac92ca5ab87034a348decad7ee8d4bd1b"><td class="memItemLeft" align="right" valign="top">#define&#160;</td><td class="memItemRight" valign="bottom"><a class="el" href="cuesheetparser_8cc.html#ac92ca5ab87034a348decad7ee8d4bd1b">FPS</a>&#160;&#160;&#160;(75)</td></tr>
<tr class="separator:ac92ca5ab87034a348decad7ee8d4bd1b"><td class="memSeparator" colspan="2">&#160;</td></tr>
<tr class="memitem:aa7e88b95bbed236973a0751977283c43"><td class="memItemLeft" align="right" valign="top">#define&#160;</td><td class="memItemRight" valign="bottom"><a class="el" href="cuesheetparser_8cc.html#aa7e88b95bbed236973a0751977283c43">VAL_OR_EMPTY</a>(val)&#160;&#160;&#160;((val) != nullptr ? (val) : &quot;&quot;)</td></tr>
<tr class="separator:aa7e88b95bbed236973a0751977283c43"><td class="memSeparator" colspan="2">&#160;</td></tr>
<tr class="memitem:af687d46c56bfe626504e419300f881ab"><td class="memItemLeft" align="right" valign="top">#define&#160;</td><td class="memItemRight" valign="bottom"><a class="el" href="cuesheetparser_8cc.html#af687d46c56bfe626504e419300f881ab">TRACKDIR</a>&#160;&#160;&#160;&quot;tracks&quot;</td></tr>
<tr class="separator:af687d46c56bfe626504e419300f881ab"><td class="memSeparator" colspan="2">&#160;</td></tr>
</table><table class="memberdecls">
<tr class="heading"><td colspan="2"><h2 class="groupheader"><a name="func-members"></a>
Functions</h2></td></tr>
<tr class="memitem:a62b6aeddb183666e492b32fc93fd734e"><td class="memItemLeft" align="right" valign="top">static bool&#160;</td><td class="memItemRight" valign="bottom"><a class="el" href="cuesheetparser_8cc.html#a62b6aeddb183666e492b32fc93fd734e">create_cuesheet_virtualfile</a> (Track *track, int titleno, const std::string &amp;filename, const std::string &amp;path, const struct stat *statbuf, int trackcount, int trackno, const std::string &amp;album, const std::string &amp;genre, const std::string &amp;date)</td></tr>
<tr class="memdesc:a62b6aeddb183666e492b32fc93fd734e"><td class="mdescLeft">&#160;</td><td class="mdescRight">Cuesheet structure Structure see <a href="https://en.wikipedia.org/wiki/Cue_sheet_(computing)">https://en.wikipedia.org/wiki/Cue_sheet_(computing)</a> <br  />
<br  />
Real life example: <br  />
<br  />
PERFORMER "Subway to Sally" <br  />
TITLE "Nord Nord Ost" <br  />
CATALOG 0727361134129 <br  />
REM DATE 2005 <br  />
REM DISCNUMBER 1 <br  />
REM TOTALDISCS 1 <br  />
FILE "Subway to Sally - Nord Nord Ost.flac" WAVE <br  />
 TRACK 01 AUDIO <br  />
 PERFORMER "Subway to Sally" <br  />
 TITLE "Sarabande de noir" <br  />
 INDEX 01 00:00:00 <br  />
 TRACK 02 AUDIO <br  />
 PERFORMER "Subway to Sally" <br  />
 TITLE "Schneekönigin" <br  />
 INDEX 01 00:55:30 <br  />
 TRACK 03 AUDIO <br  />
 PERFORMER "Subway to Sally" <br  />
 TITLE "Feuerland" <br  />
 INDEX 01 06:41:38 <br  />
 TRACK 04 AUDIO <br  />
 PERFORMER "Subway to Sally" <br  />
 TITLE "Sieben" <br  />
 INDEX 01 10:48:42 <br  />
 TRACK 05 AUDIO <br  />
 PERFORMER "Subway to Sally" <br  />
 TITLE "Lacrimae '74" <br  />
 INDEX 01 14:11:14 <br  />
 TRACK 06 AUDIO <br  />
 PERFORMER "Subway to Sally" <br  />
 TITLE "Feuerkind" <br  />
 INDEX 01 15:57:07 <br  />
 TRACK 07 AUDIO <br  />
 PERFORMER "Subway to Sally" <br  />
 TITLE "Das Rätsel II" <br  />
 INDEX 01 22:03:28 <br  />
 TRACK 08 AUDIO <br  />
 PERFORMER "Subway to Sally" <br  />
 TITLE "S.O.S." <br  />
 INDEX 01 26:25:23 <br  />
 TRACK 09 AUDIO <br  />
 PERFORMER "Subway to Sally" <br  />
 TITLE "Eisblumen" <br  />
 INDEX 01 32:21:42 <br  />
 TRACK 10 AUDIO <br  />
 PERFORMER "Subway to Sally" <br  />
 TITLE "Seemannslied" <br  />
 INDEX 01 36:53:71 <br  />
.  <a href="cuesheetparser_8cc.html#a62b6aeddb183666e492b32fc93fd734e">More...</a><br /></td></tr>
<tr class="separator:a62b6aeddb183666e492b32fc93fd734e"><td class="memSeparator" colspan="2">&#160;</td></tr>
<tr class="memitem:a12737626d04270bf1f5723278c588a76"><td class="memItemLeft" align="right" valign="top">static int&#160;</td><td class="memItemRight" valign="bottom"><a class="el" href="cuesheetparser_8cc.html#a12737626d04270bf1f5723278c588a76">parse_cuesheet</a> (const std::string &amp;filename, const std::string &amp;cuesheet, const struct stat *statbuf, void *buf, fuse_fill_dir_t filler)</td></tr>
<tr class="memdesc:a12737626d04270bf1f5723278c588a76"><td class="mdescLeft">&#160;</td><td class="mdescRight">parse_cuesheet  <a href="cuesheetparser_8cc.html#a12737626d04270bf1f5723278c588a76">More...</a><br /></td></tr>
<tr class="separator:a12737626d04270bf1f5723278c588a76"><td class="memSeparator" colspan="2">&#160;</td></tr>
<tr class="memitem:ad66bb7752391c69f1cb066e847ef97e3"><td class="memItemLeft" align="right" valign="top">static int&#160;</td><td class="memItemRight" valign="bottom"><a class="el" href="cuesheetparser_8cc.html#ad66bb7752391c69f1cb066e847ef97e3">parse_cuesheet</a> (const std::string &amp;filename, Cd *cd, const struct stat *statbuf, void *buf, fuse_fill_dir_t filler)</td></tr>
<tr class="memdesc:ad66bb7752391c69f1cb066e847ef97e3"><td class="mdescLeft">&#160;</td><td class="mdescRight">parse_cuesheet  <a href="cuesheetparser_8cc.html#ad66bb7752391c69f1cb066e847ef97e3">More...</a><br /></td></tr>
<tr class="separator:ad66bb7752391c69f1cb066e847ef97e3"><td class="memSeparator" colspan="2">&#160;</td></tr>
<tr class="memitem:af05a773e61648beac0f54be8adacce3e"><td class="memItemLeft" align="right" valign="top">int&#160;</td><td class="memItemRight" valign="bottom"><a class="el" href="cuesheetparser_8cc.html#af05a773e61648beac0f54be8adacce3e">check_cuesheet</a> (const std::string &amp;filename, void *buf, fuse_fill_dir_t filler)</td></tr>
<tr class="memdesc:af05a773e61648beac0f54be8adacce3e"><td class="mdescLeft">&#160;</td><td class="mdescRight">Get number of titles in cue sheet.  <a href="cuesheetparser_8cc.html#af05a773e61648beac0f54be8adacce3e">More...</a><br /></td></tr>
<tr class="separator:af05a773e61648beac0f54be8adacce3e"><td class="memSeparator" colspan="2">&#160;</td></tr>
</table>
<a name="details" id="details"></a><h2 class="groupheader">Detailed Description</h2>
<div class="textblock"><p>Cue sheet parser implementation. </p>
<dl class="section author"><dt>Author</dt><dd>Norbert Schlia (<a href="#" onclick="location.href='mai'+'lto:'+'nsc'+'hl'+'ia@'+'ob'+'liv'+'io'+'n-s'+'of'+'twa'+'re'+'.de'; return false;">nschl<span style="display: none;">.nosp@m.</span>ia@o<span style="display: none;">.nosp@m.</span>blivi<span style="display: none;">.nosp@m.</span>on-s<span style="display: none;">.nosp@m.</span>oftwa<span style="display: none;">.nosp@m.</span>re.d<span style="display: none;">.nosp@m.</span>e</a>) </dd></dl>
<dl class="section copyright"><dt>Copyright</dt><dd>Copyright (C) 2017-2020 Norbert Schlia (<a href="#" onclick="location.href='mai'+'lto:'+'nsc'+'hl'+'ia@'+'ob'+'liv'+'io'+'n-s'+'of'+'twa'+'re'+'.de'; return false;">nschl<span style="display: none;">.nosp@m.</span>ia@o<span style="display: none;">.nosp@m.</span>blivi<span style="display: none;">.nosp@m.</span>on-s<span style="display: none;">.nosp@m.</span>oftwa<span style="display: none;">.nosp@m.</span>re.d<span style="display: none;">.nosp@m.</span>e</a>) </dd></dl>

<p class="definition">Definition in file <a class="el" href="cuesheetparser_8cc_source.html">cuesheetparser.cc</a>.</p>
</div><h2 class="groupheader">Macro Definition Documentation</h2>
<a id="ac92ca5ab87034a348decad7ee8d4bd1b"></a>
<h2 class="memtitle"><span class="permalink"><a href="#ac92ca5ab87034a348decad7ee8d4bd1b">&#9670;&nbsp;</a></span>FPS</h2>

<div class="memitem">
<div class="memproto">
      <table class="memname">
        <tr>
          <td class="memname">#define FPS&#160;&#160;&#160;(75)</td>
        </tr>
      </table>
</div><div class="memdoc">
<ul>
<li>On sector contains 75 frames per CD specs </li>
</ul>

<p class="definition">Definition at line <a class="el" href="cuesheetparser_8cc_source.html#l00040">40</a> of file <a class="el" href="cuesheetparser_8cc_source.html">cuesheetparser.cc</a>.</p>

</div>
</div>
<a id="af687d46c56bfe626504e419300f881ab"></a>
<h2 class="memtitle"><span class="permalink"><a href="#af687d46c56bfe626504e419300f881ab">&#9670;&nbsp;</a></span>TRACKDIR</h2>

<div class="memitem">
<div class="memproto">
      <table class="memname">
        <tr>
          <td class="memname">#define TRACKDIR&#160;&#160;&#160;&quot;tracks&quot;</td>
        </tr>
      </table>
</div><div class="memdoc">
<ul>
<li>Extension of virtual tracks directory </li>
</ul>

<p class="definition">Definition at line <a class="el" href="cuesheetparser_8cc_source.html#l00043">43</a> of file <a class="el" href="cuesheetparser_8cc_source.html">cuesheetparser.cc</a>.</p>

</div>
</div>
<a id="aa7e88b95bbed236973a0751977283c43"></a>
<h2 class="memtitle"><span class="permalink"><a href="#aa7e88b95bbed236973a0751977283c43">&#9670;&nbsp;</a></span>VAL_OR_EMPTY</h2>

<div class="memitem">
<div class="memproto">
      <table class="memname">
        <tr>
          <td class="memname">#define VAL_OR_EMPTY</td>
          <td>(</td>
          <td class="paramtype">&#160;</td>
          <td class="paramname">val</td><td>)</td>
          <td>&#160;&#160;&#160;((val) != nullptr ? (val) : &quot;&quot;)</td>
        </tr>
      </table>
</div><div class="memdoc">
<ul>
<li>Return string or empty string if val is nullptr </li>
</ul>

<p class="definition">Definition at line <a class="el" href="cuesheetparser_8cc_source.html#l00041">41</a> of file <a class="el" href="cuesheetparser_8cc_source.html">cuesheetparser.cc</a>.</p>

</div>
</div>
<h2 class="groupheader">Function Documentation</h2>
<a id="af05a773e61648beac0f54be8adacce3e"></a>
<h2 class="memtitle"><span class="permalink"><a href="#af05a773e61648beac0f54be8adacce3e">&#9670;&nbsp;</a></span>check_cuesheet()</h2>

<div class="memitem">
<div class="memproto">
      <table class="memname">
        <tr>
          <td class="memname">int check_cuesheet </td>
          <td>(</td>
          <td class="paramtype">const std::string &amp;&#160;</td>
          <td class="paramname"><em>filename</em>, </td>
        </tr>
        <tr>
          <td class="paramkey"></td>
          <td></td>
          <td class="paramtype">void *&#160;</td>
          <td class="paramname"><em>buf</em> = <code>nullptr</code>, </td>
        </tr>
        <tr>
          <td class="paramkey"></td>
          <td></td>
          <td class="paramtype">fuse_fill_dir_t&#160;</td>
          <td class="paramname"><em>filler</em> = <code>nullptr</code>&#160;</td>
        </tr>
        <tr>
          <td></td>
          <td>)</td>
          <td></td><td></td>
        </tr>
      </table>
</div><div class="memdoc">

<p>Get number of titles in cue sheet. </p>
<dl class="params"><dt>Parameters</dt><dd>
  <table class="params">
    <tr><td class="paramdir">[in]</td><td class="paramname">filename</td><td>- Path to check </td></tr>
    <tr><td class="paramdir">[in,out]</td><td class="paramname">buf</td><td>- The buffer passed to the readdir() operation. </td></tr>
    <tr><td class="paramdir">[in,out]</td><td class="paramname">filler</td><td>- Function to add an entry in a readdir() operation (see <a href="https://libfuse.github.io/doxygen/fuse_8h.html#a7dd132de66a5cc2add2a4eff5d435660">https://libfuse.github.io/doxygen/fuse_8h.html#a7dd132de66a5cc2add2a4eff5d435660</a>) </td></tr>
  </table>
  </dd>
</dl>
<dl class="section note"><dt>Note</dt><dd>buf and filler can be nullptr. In that case the call will run faster, so these parameters should only be passed if to be filled in. </dd></dl>
<dl class="section return"><dt>Returns</dt><dd>-errno or number or titles in cue sheet </dd></dl>

<p class="definition">Definition at line <a class="el" href="cuesheetparser_8cc_source.html#l00408">408</a> of file <a class="el" href="cuesheetparser_8cc_source.html">cuesheetparser.cc</a>.</p>

<p class="reference">References <a class="el" href="ffmpeg__utils_8cc_source.html#l00404">append_ext()</a>, <a class="el" href="ffmpeg__utils_8cc_source.html#l00288">append_sep()</a>, <a class="el" href="fuseops_8cc_source.html#l00523">check_path()</a>, <a class="el" href="logging_8h_source.html#l00254">Logging::error()</a>, <a class="el" href="ffmpeg__utils_8cc_source.html#l00362">find_ext()</a>, <a class="el" href="fuseops_8cc_source.html#l00510">find_file()</a>, <a class="el" href="fileio_8h_source.html#l00138">VIRTUALFILE::m_st</a>, <a class="el" href="cuesheetparser_8cc_source.html#l00284">parse_cuesheet()</a>, <a class="el" href="ffmpeg__utils_8cc_source.html#l00348">remove_ext()</a>, <a class="el" href="ffmpeg__utils_8cc_source.html#l00317">remove_filename()</a>, <a class="el" href="ffmpeg__utils_8cc_source.html#l00333">remove_path()</a>, <a class="el" href="ffmpeg__utils_8cc_source.html#l00382">replace_ext()</a>, <a class="el" href="logging_8h_source.html#l00162">Logging::trace()</a>, and <a class="el" href="cuesheetparser_8cc_source.html#l00043">TRACKDIR</a>.</p>

<p class="reference">Referenced by <a class="el" href="fuseops_8cc_source.html#l01145">ffmpegfs_getattr()</a>, and <a class="el" href="fuseops_8cc_source.html#l00938">ffmpegfs_readdir()</a>.</p>

</div>
</div>
<a id="a62b6aeddb183666e492b32fc93fd734e"></a>
<h2 class="memtitle"><span class="permalink"><a href="#a62b6aeddb183666e492b32fc93fd734e">&#9670;&nbsp;</a></span>create_cuesheet_virtualfile()</h2>

<div class="memitem">
<div class="memproto">
<table class="mlabels">
  <tr>
  <td class="mlabels-left">
      <table class="memname">
        <tr>
          <td class="memname">static bool create_cuesheet_virtualfile </td>
          <td>(</td>
          <td class="paramtype">Track *&#160;</td>
          <td class="paramname"><em>track</em>, </td>
        </tr>
        <tr>
          <td class="paramkey"></td>
          <td></td>
          <td class="paramtype">int&#160;</td>
          <td class="paramname"><em>titleno</em>, </td>
        </tr>
        <tr>
          <td class="paramkey"></td>
          <td></td>
          <td class="paramtype">const std::string &amp;&#160;</td>
          <td class="paramname"><em>filename</em>, </td>
        </tr>
        <tr>
          <td class="paramkey"></td>
          <td></td>
          <td class="paramtype">const std::string &amp;&#160;</td>
          <td class="paramname"><em>path</em>, </td>
        </tr>
        <tr>
          <td class="paramkey"></td>
          <td></td>
          <td class="paramtype">const struct stat *&#160;</td>
          <td class="paramname"><em>statbuf</em>, </td>
        </tr>
        <tr>
          <td class="paramkey"></td>
          <td></td>
          <td class="paramtype">int&#160;</td>
          <td class="paramname"><em>trackcount</em>, </td>
        </tr>
        <tr>
          <td class="paramkey"></td>
          <td></td>
          <td class="paramtype">int&#160;</td>
          <td class="paramname"><em>trackno</em>, </td>
        </tr>
        <tr>
          <td class="paramkey"></td>
          <td></td>
          <td class="paramtype">const std::string &amp;&#160;</td>
          <td class="paramname"><em>album</em>, </td>
        </tr>
        <tr>
          <td class="paramkey"></td>
          <td></td>
          <td class="paramtype">const std::string &amp;&#160;</td>
          <td class="paramname"><em>genre</em>, </td>
        </tr>
        <tr>
          <td class="paramkey"></td>
          <td></td>
          <td class="paramtype">const std::string &amp;&#160;</td>
          <td class="paramname"><em>date</em>&#160;</td>
        </tr>
        <tr>
          <td></td>
          <td>)</td>
          <td></td><td></td>
        </tr>
      </table>
  </td>
  <td class="mlabels-right">
<span class="mlabels"><span class="mlabel">static</span></span>  </td>
  </tr>
</table>
</div><div class="memdoc">

<p>Cuesheet structure Structure see <a href="https://en.wikipedia.org/wiki/Cue_sheet_(computing)">https://en.wikipedia.org/wiki/Cue_sheet_(computing)</a> <br  />
<br  />
Real life example: <br  />
<br  />
PERFORMER "Subway to Sally" <br  />
TITLE "Nord Nord Ost" <br  />
CATALOG 0727361134129 <br  />
REM DATE 2005 <br  />
REM DISCNUMBER 1 <br  />
REM TOTALDISCS 1 <br  />
FILE "Subway to Sally - Nord Nord Ost.flac" WAVE <br  />
 TRACK 01 AUDIO <br  />
 PERFORMER "Subway to Sally" <br  />
 TITLE "Sarabande de noir" <br  />
 INDEX 01 00:00:00 <br  />
 TRACK 02 AUDIO <br  />
 PERFORMER "Subway to Sally" <br  />
 TITLE "Schneekönigin" <br  />
 INDEX 01 00:55:30 <br  />
 TRACK 03 AUDIO <br  />
 PERFORMER "Subway to Sally" <br  />
 TITLE "Feuerland" <br  />
 INDEX 01 06:41:38 <br  />
 TRACK 04 AUDIO <br  />
 PERFORMER "Subway to Sally" <br  />
 TITLE "Sieben" <br  />
 INDEX 01 10:48:42 <br  />
 TRACK 05 AUDIO <br  />
 PERFORMER "Subway to Sally" <br  />
 TITLE "Lacrimae '74" <br  />
 INDEX 01 14:11:14 <br  />
 TRACK 06 AUDIO <br  />
 PERFORMER "Subway to Sally" <br  />
 TITLE "Feuerkind" <br  />
 INDEX 01 15:57:07 <br  />
 TRACK 07 AUDIO <br  />
 PERFORMER "Subway to Sally" <br  />
 TITLE "Das Rätsel II" <br  />
 INDEX 01 22:03:28 <br  />
 TRACK 08 AUDIO <br  />
 PERFORMER "Subway to Sally" <br  />
 TITLE "S.O.S." <br  />
 INDEX 01 26:25:23 <br  />
 TRACK 09 AUDIO <br  />
 PERFORMER "Subway to Sally" <br  />
 TITLE "Eisblumen" <br  />
 INDEX 01 32:21:42 <br  />
 TRACK 10 AUDIO <br  />
 PERFORMER "Subway to Sally" <br  />
 TITLE "Seemannslied" <br  />
 INDEX 01 36:53:71 <br  />
. </p>
<p>Create a virtual file entry of a cue sheet title.</p>
<dl class="params"><dt>Parameters</dt><dd>
  <table class="params">
    <tr><td class="paramdir">[in]</td><td class="paramname">track</td><td>- libcue2 track handle </td></tr>
    <tr><td class="paramdir">[in]</td><td class="paramname">titleno</td><td>- Title number. </td></tr>
    <tr><td class="paramdir">[in]</td><td class="paramname">filename</td><td>- Source filename. </td></tr>
    <tr><td class="paramdir">[in]</td><td class="paramname">path</td><td>- Path to check. </td></tr>
    <tr><td class="paramdir">[in]</td><td class="paramname">statbuf</td><td>- File status structure of original file. </td></tr>
    <tr><td class="paramdir">[in]</td><td class="paramname">trackcount</td><td>- Number of tracks in cue sheet. </td></tr>
    <tr><td class="paramdir">[in]</td><td class="paramname">trackno</td><td>- Track number. </td></tr>
    <tr><td class="paramdir">[in]</td><td class="paramname">album</td><td>- Name of album. </td></tr>
    <tr><td class="paramdir">[in]</td><td class="paramname">genre</td><td>- Album genre. </td></tr>
    <tr><td class="paramdir">[in]</td><td class="paramname">date</td><td>- Publishing date. </td></tr>
  </table>
  </dd>
</dl>
<dl class="section return"><dt>Returns</dt><dd>On error, returns false. On success, returns true. </dd></dl>
<p>&lt;* </p><dl class="todo"><dt><b><a class="el" href="todo.html#_todo000006">Todo:</a></b></dt><dd>Evaluate track index here??? </dd></dl>
<p>&lt;* </p><dl class="todo"><dt><b><a class="el" href="todo.html#_todo000007">Todo:</a></b></dt><dd>Should use the correct index (audio) here </dd></dl>
<p>&lt;* </p><dl class="todo"><dt><b><a class="el" href="todo.html#_todo000008">Todo:</a></b></dt><dd>Should store the correct index (audio) in m_format_idx </dd></dl>
<p>&lt; </p><dl class="todo"><dt><b><a class="el" href="todo.html#_todo000009">Todo:</a></b></dt><dd>probe original file for info </dd></dl>

<p class="definition">Definition at line <a class="el" href="cuesheetparser_8cc_source.html#l00148">148</a> of file <a class="el" href="cuesheetparser_8cc_source.html">cuesheetparser.cc</a>.</p>

<p class="reference">References <a class="el" href="ffmpeg__utils_8h_source.html#l00144">BITRATE</a>, <a class="el" href="logging_8h_source.html#l00254">Logging::error()</a>, <a class="el" href="ffmpeg__utils_8cc_source.html#l00253">FFmpegfs_Format::fileext()</a>, <a class="el" href="ffmpeg__utils_8cc_source.html#l00846">format_duration()</a>, <a class="el" href="cuesheetparser_8cc_source.html#l00040">FPS</a>, <a class="el" href="fuseops_8cc_source.html#l00480">insert_dir()</a>, <a class="el" href="fuseops_8cc_source.html#l00437">insert_file()</a>, <a class="el" href="ffmpeg__utils_8cc_source.html#l00263">FFmpegfs_Format::is_multiformat()</a>, <a class="el" href="fileio_8h_source.html#l00214">VIRTUALFILE::CUESHEET_TRACK::m_album</a>, <a class="el" href="fileio_8h_source.html#l00212">VIRTUALFILE::CUESHEET_TRACK::m_artist</a>, <a class="el" href="structVIRTUALFILE.html#afd9a0cb11263d27d5cafa241ee62a8ec">VIRTUALFILE::m_cuesheet</a>, <a class="el" href="fileio_8h_source.html#l00216">VIRTUALFILE::CUESHEET_TRACK::m_date</a>, <a class="el" href="fileio_8h_source.html#l00141">VIRTUALFILE::m_duration</a>, <a class="el" href="fileio_8h_source.html#l00219">VIRTUALFILE::CUESHEET_TRACK::m_duration</a>, <a class="el" href="ffmpegfs_8h_source.html#l00136">FFMPEGFS_PARAMS::m_format</a>, <a class="el" href="fileio_8h_source.html#l00135">VIRTUALFILE::m_format_idx</a>, <a class="el" href="fileio_8h_source.html#l00215">VIRTUALFILE::CUESHEET_TRACK::m_genre</a>, <a class="el" href="fileio_8h_source.html#l00142">VIRTUALFILE::m_predicted_size</a>, <a class="el" href="fileio_8h_source.html#l00138">VIRTUALFILE::m_st</a>, <a class="el" href="fileio_8h_source.html#l00218">VIRTUALFILE::CUESHEET_TRACK::m_start</a>, <a class="el" href="fileio_8h_source.html#l00213">VIRTUALFILE::CUESHEET_TRACK::m_title</a>, <a class="el" href="fileio_8h_source.html#l00211">VIRTUALFILE::CUESHEET_TRACK::m_trackno</a>, <a class="el" href="fileio_8h_source.html#l00210">VIRTUALFILE::CUESHEET_TRACK::m_tracktotal</a>, <a class="el" href="ffmpegfs_8cc_source.html#l00066">params</a>, <a class="el" href="ffmpeg__utils_8cc_source.html#l01098">replace_all()</a>, <a class="el" href="ffmpeg__utils_8cc_source.html#l01643">stat_set_size()</a>, <a class="el" href="transcode_8cc_source.html#l00246">transcoder_cached_filesize()</a>, <a class="el" href="transcode_8cc_source.html#l00273">transcoder_set_filesize()</a>, <a class="el" href="cuesheetparser_8cc_source.html#l00041">VAL_OR_EMPTY</a>, <a class="el" href="fileio_8h_source.html#l00112">VIRTUALFLAG_CUESHEET</a>, and <a class="el" href="fileio_8h_source.html#l00089">VIRTUALTYPE_DISK</a>.</p>

<p class="reference">Referenced by <a class="el" href="cuesheetparser_8cc_source.html#l00311">parse_cuesheet()</a>.</p>

</div>
</div>
<a id="ad66bb7752391c69f1cb066e847ef97e3"></a>
<h2 class="memtitle"><span class="permalink"><a href="#ad66bb7752391c69f1cb066e847ef97e3">&#9670;&nbsp;</a></span>parse_cuesheet() <span class="overload">[1/2]</span></h2>

<div class="memitem">
<div class="memproto">
<table class="mlabels">
  <tr>
  <td class="mlabels-left">
      <table class="memname">
        <tr>
          <td class="memname">static int parse_cuesheet </td>
          <td>(</td>
          <td class="paramtype">const std::string &amp;&#160;</td>
          <td class="paramname"><em>filename</em>, </td>
        </tr>
        <tr>
          <td class="paramkey"></td>
          <td></td>
          <td class="paramtype">Cd *&#160;</td>
          <td class="paramname"><em>cd</em>, </td>
        </tr>
        <tr>
          <td class="paramkey"></td>
          <td></td>
          <td class="paramtype">const struct stat *&#160;</td>
          <td class="paramname"><em>statbuf</em>, </td>
        </tr>
        <tr>
          <td class="paramkey"></td>
          <td></td>
          <td class="paramtype">void *&#160;</td>
          <td class="paramname"><em>buf</em>, </td>
        </tr>
        <tr>
          <td class="paramkey"></td>
          <td></td>
          <td class="paramtype">fuse_fill_dir_t&#160;</td>
          <td class="paramname"><em>filler</em>&#160;</td>
        </tr>
        <tr>
          <td></td>
          <td>)</td>
          <td></td><td></td>
        </tr>
      </table>
  </td>
  <td class="mlabels-right">
<span class="mlabels"><span class="mlabel">static</span></span>  </td>
  </tr>
</table>
</div><div class="memdoc">

<p>parse_cuesheet </p>
<dl class="params"><dt>Parameters</dt><dd>
  <table class="params">
    <tr><td class="paramdir">[in]</td><td class="paramname">filename</td><td>- File name of source </td></tr>
    <tr><td class="paramdir">[in]</td><td class="paramname">cd</td><td>- libcue2 cue sheet handle </td></tr>
    <tr><td class="paramdir">[in]</td><td class="paramname">statbuf</td><td>- File status structure of original file. </td></tr>
    <tr><td class="paramdir">[in,out]</td><td class="paramname">buf</td><td>- The buffer passed to the readdir() operation. </td></tr>
    <tr><td class="paramdir">[in,out]</td><td class="paramname">filler</td><td>- Function to add an entry in a readdir() operation (see <a href="https://libfuse.github.io/doxygen/fuse_8h.html#a7dd132de66a5cc2add2a4eff5d435660">https://libfuse.github.io/doxygen/fuse_8h.html#a7dd132de66a5cc2add2a4eff5d435660</a>) </td></tr>
  </table>
  </dd>
</dl>
<dl class="section return"><dt>Returns</dt><dd>On success, returns number of titles in cue sheet. On error, returns -errno. </dd></dl>

<p class="definition">Definition at line <a class="el" href="cuesheetparser_8cc_source.html#l00311">311</a> of file <a class="el" href="cuesheetparser_8cc_source.html">cuesheetparser.cc</a>.</p>

<p class="reference">References <a class="el" href="ffmpeg__utils_8cc_source.html#l00404">append_ext()</a>, <a class="el" href="ffmpeg__utils_8cc_source.html#l00288">append_sep()</a>, <a class="el" href="cuesheetparser_8cc_source.html#l00148">create_cuesheet_virtualfile()</a>, <a class="el" href="logging_8h_source.html#l00254">Logging::error()</a>, <a class="el" href="fuseops_8cc_source.html#l00480">insert_dir()</a>, <a class="el" href="fileio_8h_source.html#l00138">VIRTUALFILE::m_st</a>, <a class="el" href="ffmpeg__utils_8cc_source.html#l00317">remove_filename()</a>, <a class="el" href="ffmpeg__utils_8cc_source.html#l00333">remove_path()</a>, <a class="el" href="cuesheetparser_8cc_source.html#l00043">TRACKDIR</a>, <a class="el" href="cuesheetparser_8cc_source.html#l00041">VAL_OR_EMPTY</a>, <a class="el" href="fileio_8h_source.html#l00112">VIRTUALFLAG_CUESHEET</a>, and <a class="el" href="fileio_8h_source.html#l00089">VIRTUALTYPE_DISK</a>.</p>

</div>
</div>
<a id="a12737626d04270bf1f5723278c588a76"></a>
<h2 class="memtitle"><span class="permalink"><a href="#a12737626d04270bf1f5723278c588a76">&#9670;&nbsp;</a></span>parse_cuesheet() <span class="overload">[2/2]</span></h2>

<div class="memitem">
<div class="memproto">
<table class="mlabels">
  <tr>
  <td class="mlabels-left">
      <table class="memname">
        <tr>
          <td class="memname">static int parse_cuesheet </td>
          <td>(</td>
          <td class="paramtype">const std::string &amp;&#160;</td>
          <td class="paramname"><em>filename</em>, </td>
        </tr>
        <tr>
          <td class="paramkey"></td>
          <td></td>
          <td class="paramtype">const std::string &amp;&#160;</td>
          <td class="paramname"><em>cuesheet</em>, </td>
        </tr>
        <tr>
          <td class="paramkey"></td>
          <td></td>
          <td class="paramtype">const struct stat *&#160;</td>
          <td class="paramname"><em>statbuf</em>, </td>
        </tr>
        <tr>
          <td class="paramkey"></td>
          <td></td>
          <td class="paramtype">void *&#160;</td>
          <td class="paramname"><em>buf</em>, </td>
        </tr>
        <tr>
          <td class="paramkey"></td>
          <td></td>
          <td class="paramtype">fuse_fill_dir_t&#160;</td>
          <td class="paramname"><em>filler</em>&#160;</td>
        </tr>
        <tr>
          <td></td>
          <td>)</td>
          <td></td><td></td>
        </tr>
      </table>
  </td>
  <td class="mlabels-right">
<span class="mlabels"><span class="mlabel">static</span></span>  </td>
  </tr>
</table>
</div><div class="memdoc">

<p>parse_cuesheet </p>
<dl class="params"><dt>Parameters</dt><dd>
  <table class="params">
    <tr><td class="paramdir">[in]</td><td class="paramname">filename</td><td></td></tr>
    <tr><td class="paramdir">[in]</td><td class="paramname">cuesheet</td><td></td></tr>
    <tr><td class="paramdir">[in]</td><td class="paramname">statbuf</td><td>- File status structure of original file. </td></tr>
    <tr><td class="paramdir">[in,out]</td><td class="paramname">buf</td><td>- The buffer passed to the readdir() operation. </td></tr>
    <tr><td class="paramdir">[in,out]</td><td class="paramname">filler</td><td>- Function to add an entry in a readdir() operation (see <a href="https://libfuse.github.io/doxygen/fuse_8h.html#a7dd132de66a5cc2add2a4eff5d435660">https://libfuse.github.io/doxygen/fuse_8h.html#a7dd132de66a5cc2add2a4eff5d435660</a>) </td></tr>
  </table>
  </dd>
</dl>
<dl class="section return"><dt>Returns</dt><dd>On success, returns number of titles in cue sheet. On error, returns -errno. </dd></dl>

<p class="definition">Definition at line <a class="el" href="cuesheetparser_8cc_source.html#l00284">284</a> of file <a class="el" href="cuesheetparser_8cc_source.html">cuesheetparser.cc</a>.</p>

<p class="reference">References <a class="el" href="ffmpeg__utils_8cc_source.html#l01445">read_file()</a>, and <a class="el" href="logging_8h_source.html#l00162">Logging::trace()</a>.</p>

<p class="reference">Referenced by <a class="el" href="cuesheetparser_8cc_source.html#l00408">check_cuesheet()</a>.</p>

</div>
</div>
</div><!-- contents -->
<!-- start footer part -->
<hr class="footer"/><address class="footer"><small>
Generated by&#160;<a href="https://www.doxygen.org/index.html"><img class="footer" src="doxygen.svg" width="104" height="31" alt="doxygen"/></a> 1.9.1
</small></address>
</body>
</html>
